<svg width="104" height="104" viewBox="0 0 104 104" fill="none" xmlns="http://www.w3.org/2000/svg">
<g clip-path="url(#clip0_3319_11257)">
<path d="M37.5556 17.3325C37.5556 17.3325 37.5556 11.5547 43.3333 11.5547C49.1111 11.5547 49.1111 17.3325 49.1111 17.3325V23.1102C49.1111 23.1102 49.1111 28.888 43.3333 28.888C37.5556 28.888 37.5556 23.1102 37.5556 23.1102V17.3325ZM11.5556 49.1102C11.5556 49.1102 17.3333 49.1102 17.3333 54.888C17.3333 60.6658 11.5556 60.6658 11.5556 60.6658H5.77778C5.77778 60.6658 0 60.6658 0 54.888C0 49.1102 5.77778 49.1102 5.77778 49.1102H11.5556ZM22.7413 29.0122C22.7413 29.0122 26.8262 33.0971 22.7413 37.182C18.6564 41.2669 14.5716 37.182 14.5716 37.182L10.4838 33.0971C10.4838 33.0971 6.39889 29.0122 10.4838 24.9245C14.5716 20.8396 18.6564 24.9245 18.6564 24.9245L22.7413 29.0122ZM72.098 37.182C72.098 37.182 68.0131 41.2669 63.9282 37.182C59.8433 33.0971 63.9282 29.0122 63.9282 29.0122L68.0131 24.9274C68.0131 24.9274 72.098 20.8425 76.1829 24.9274C80.2678 29.0122 76.1829 33.0971 76.1829 33.0971L72.098 37.182Z" fill="#FFAC33"/>
<path d="M43.3338 77.9996C56.0977 77.9996 66.4449 67.6524 66.4449 54.8885C66.4449 42.1245 56.0977 31.7773 43.3338 31.7773C30.5699 31.7773 20.2227 42.1245 20.2227 54.8885C20.2227 67.6524 30.5699 77.9996 43.3338 77.9996Z" fill="#FFAC33"/>
<path d="M81.5349 48.5325C79.2151 48.5325 76.9849 48.8762 74.8789 49.5147C72.3886 42.5554 65.6315 37.5547 57.6582 37.5547C49.11 37.5547 41.9513 43.3065 39.9695 51.0602C37.7786 49.4233 35.1182 48.5368 32.3833 48.5325C25.4008 48.5325 19.7444 54.0618 19.7444 60.8825C19.7444 62.5378 20.0911 64.1122 20.6948 65.5567C19.4715 65.2042 18.2065 65.0167 16.9335 64.9991C9.17685 64.9991 2.89062 71.1409 2.89062 78.7214C2.89062 86.3018 9.17685 92.4436 16.9335 92.4436H81.532C93.9426 92.4436 104.002 82.6156 104.002 70.488C104.002 58.3605 93.9426 48.5325 81.5349 48.5325Z" fill="#E1E8ED"/>
</g>
<defs>
<clipPath id="clip0_3319_11257">
<rect width="104" height="104" fill="white"/>
</clipPath>
</defs>
</svg>
